<svg width="170" height="170" viewBox="0 0 170 170" fill="none" xmlns="http://www.w3.org/2000/svg">
<path d="M118.738 76.0718C121.331 76.7118 123.524 78.3474 124.832 80.6136C130.719 90.8095 136.266 100.418 141.729 109.88C152.717 128.912 134.282 152.262 112.513 146.888L65.0942 135.181C62.9172 134.643 62.5803 131.77 64.5602 130.627L89.6752 116.127C90.7939 115.481 92.1193 115.293 93.3735 115.602L96.8988 116.473C101.253 117.548 104.94 112.877 102.742 109.071L83.7345 76.149C81.5309 72.3324 84.9845 67.7384 89.2631 68.7947L118.738 76.0718Z" fill="#163188"/>
<path d="M48.5435 101.564C45.9513 100.924 43.7583 99.2887 42.4499 97.0225C36.5633 86.8266 31.0158 77.218 25.5527 67.7557C14.565 48.724 33 25.3738 54.7694 30.7483L102.188 42.4555C104.365 42.9929 104.702 45.8664 102.722 47.0094L77.6073 61.5096C76.4885 62.1555 75.1631 62.3433 73.9089 62.0337L70.3833 61.1634C66.0294 60.0885 62.3425 64.7587 64.5401 68.565L83.5479 101.487C85.7514 105.304 82.2979 109.898 78.0193 108.841L48.5435 101.564Z" fill="#163188"/>
<path d="M120.935 67.8756C123.527 68.5156 125.72 70.1513 127.028 72.4175C132.915 82.6134 138.462 92.2219 143.925 101.684C154.913 120.716 136.478 144.066 114.709 138.692L67.2903 126.984C65.1133 126.447 64.7764 123.574 66.7563 122.43L91.8713 107.93C92.99 107.284 94.3154 107.097 95.5696 107.406L99.0949 108.277C103.449 109.351 107.136 104.681 104.938 100.875L85.9306 67.9528C83.7271 64.1362 87.1806 59.5422 91.4592 60.5986L120.935 67.8756Z" fill="#7595FF"/>
<path d="M50.7397 93.368C48.1475 92.7281 45.9544 91.0925 44.646 88.8263C38.7594 78.6304 33.2119 69.0219 27.7488 59.5595C16.7611 40.5279 35.1961 17.1777 56.9655 22.5522L104.384 34.2594C106.561 34.7967 106.898 37.6702 104.918 38.8133L79.8034 53.3134C78.6846 53.9593 77.3592 54.1472 76.105 53.8376L72.5794 52.9672C68.2255 51.8924 64.5386 56.5625 66.7362 60.3688L85.744 93.2909C87.9475 97.1075 84.494 101.702 80.2154 100.645L50.7397 93.368Z" fill="#7595FF"/>
</svg>
